<mxfile host="app.diagrams.net" modified="2023-05-31T09:57:22.287Z" agent="Mozilla/5.0 (Windows NT 10.0; Win64; x64) AppleWebKit/537.36 (KHTML, like Gecko) Chrome/113.0.0.0 Safari/537.36" etag="VULhLlCD08hPwQPFmMb-" version="21.3.3" type="github">
  <diagram name="Page-1" id="G1VXjitRbA4F_LG6pt5o">
    <mxGraphModel dx="1434" dy="707" grid="1" gridSize="10" guides="1" tooltips="1" connect="1" arrows="1" fold="1" page="1" pageScale="1" pageWidth="850" pageHeight="1100" math="0" shadow="0">
      <root>
        <mxCell id="0" />
        <mxCell id="1" parent="0" />
        <mxCell id="Z-yO7i1SM1LQbv6-uCtM-1" value="" style="whiteSpace=wrap;html=1;aspect=fixed;" vertex="1" parent="1">
          <mxGeometry x="30" y="60" width="610" height="610" as="geometry" />
        </mxCell>
        <mxCell id="3iBVKyG_XmniIYtV2a0F-77" value="" style="ellipse;whiteSpace=wrap;html=1;" parent="1" vertex="1">
          <mxGeometry x="210" y="120" width="410" height="450" as="geometry" />
        </mxCell>
        <mxCell id="3iBVKyG_XmniIYtV2a0F-1" value="" style="shape=cylinder3;whiteSpace=wrap;html=1;boundedLbl=1;backgroundOutline=1;size=15;" parent="1" vertex="1">
          <mxGeometry x="40" y="300" width="60" height="80" as="geometry" />
        </mxCell>
        <mxCell id="3iBVKyG_XmniIYtV2a0F-2" value="" style="shape=cylinder3;whiteSpace=wrap;html=1;boundedLbl=1;backgroundOutline=1;size=15;" parent="1" vertex="1">
          <mxGeometry x="50" y="310" width="60" height="80" as="geometry" />
        </mxCell>
        <mxCell id="3iBVKyG_XmniIYtV2a0F-3" value="" style="shape=cylinder3;whiteSpace=wrap;html=1;boundedLbl=1;backgroundOutline=1;size=15;" parent="1" vertex="1">
          <mxGeometry x="60" y="320" width="60" height="80" as="geometry" />
        </mxCell>
        <mxCell id="3iBVKyG_XmniIYtV2a0F-7" value="&lt;b&gt;Customer Data&lt;br&gt;Transaction History&lt;/b&gt;" style="text;html=1;strokeColor=none;fillColor=none;align=center;verticalAlign=middle;whiteSpace=wrap;rounded=0;" parent="1" vertex="1">
          <mxGeometry x="140" y="320" width="120" height="50" as="geometry" />
        </mxCell>
        <mxCell id="3iBVKyG_XmniIYtV2a0F-34" value="" style="endArrow=none;html=1;rounded=0;" parent="1" edge="1">
          <mxGeometry width="50" height="50" relative="1" as="geometry">
            <mxPoint x="120" y="370" as="sourcePoint" />
            <mxPoint x="280" y="370" as="targetPoint" />
          </mxGeometry>
        </mxCell>
        <mxCell id="3iBVKyG_XmniIYtV2a0F-35" value="" style="endArrow=none;html=1;rounded=0;" parent="1" edge="1">
          <mxGeometry width="50" height="50" relative="1" as="geometry">
            <mxPoint x="280" y="480" as="sourcePoint" />
            <mxPoint x="280" y="270" as="targetPoint" />
          </mxGeometry>
        </mxCell>
        <mxCell id="3iBVKyG_XmniIYtV2a0F-39" value="Registration" style="text;html=1;strokeColor=none;fillColor=none;align=center;verticalAlign=middle;whiteSpace=wrap;rounded=0;" parent="1" vertex="1">
          <mxGeometry x="280" y="240" width="80" height="30" as="geometry" />
        </mxCell>
        <mxCell id="3iBVKyG_XmniIYtV2a0F-40" value="One Time Shopper" style="text;html=1;strokeColor=none;fillColor=none;align=center;verticalAlign=middle;whiteSpace=wrap;rounded=0;" parent="1" vertex="1">
          <mxGeometry x="285" y="310" width="70" height="30" as="geometry" />
        </mxCell>
        <mxCell id="3iBVKyG_XmniIYtV2a0F-41" value="2-N Shopper" style="text;html=1;strokeColor=none;fillColor=none;align=center;verticalAlign=middle;whiteSpace=wrap;rounded=0;" parent="1" vertex="1">
          <mxGeometry x="285" y="380" width="70" height="30" as="geometry" />
        </mxCell>
        <mxCell id="3iBVKyG_XmniIYtV2a0F-42" value="Heavy Shopper" style="text;html=1;strokeColor=none;fillColor=none;align=center;verticalAlign=middle;whiteSpace=wrap;rounded=0;" parent="1" vertex="1">
          <mxGeometry x="285" y="450" width="70" height="30" as="geometry" />
        </mxCell>
        <mxCell id="3iBVKyG_XmniIYtV2a0F-50" value="" style="endArrow=classic;html=1;rounded=0;" parent="1" edge="1">
          <mxGeometry width="50" height="50" relative="1" as="geometry">
            <mxPoint x="360" y="239" as="sourcePoint" />
            <mxPoint x="430" y="240" as="targetPoint" />
          </mxGeometry>
        </mxCell>
        <mxCell id="3iBVKyG_XmniIYtV2a0F-51" value="" style="endArrow=none;html=1;rounded=0;" parent="1" edge="1">
          <mxGeometry width="50" height="50" relative="1" as="geometry">
            <mxPoint x="280" y="269" as="sourcePoint" />
            <mxPoint x="360" y="269" as="targetPoint" />
          </mxGeometry>
        </mxCell>
        <mxCell id="3iBVKyG_XmniIYtV2a0F-52" value="" style="endArrow=none;html=1;rounded=0;" parent="1" edge="1">
          <mxGeometry width="50" height="50" relative="1" as="geometry">
            <mxPoint x="360" y="299" as="sourcePoint" />
            <mxPoint x="360" y="239" as="targetPoint" />
          </mxGeometry>
        </mxCell>
        <mxCell id="3iBVKyG_XmniIYtV2a0F-53" value="" style="endArrow=classic;html=1;rounded=0;" parent="1" edge="1">
          <mxGeometry width="50" height="50" relative="1" as="geometry">
            <mxPoint x="360" y="269" as="sourcePoint" />
            <mxPoint x="430" y="269" as="targetPoint" />
          </mxGeometry>
        </mxCell>
        <mxCell id="3iBVKyG_XmniIYtV2a0F-54" value="" style="endArrow=classic;html=1;rounded=0;" parent="1" edge="1">
          <mxGeometry width="50" height="50" relative="1" as="geometry">
            <mxPoint x="360" y="299" as="sourcePoint" />
            <mxPoint x="430" y="300" as="targetPoint" />
          </mxGeometry>
        </mxCell>
        <mxCell id="3iBVKyG_XmniIYtV2a0F-56" value="" style="endArrow=classic;html=1;rounded=0;" parent="1" edge="1">
          <mxGeometry width="50" height="50" relative="1" as="geometry">
            <mxPoint x="360" y="309" as="sourcePoint" />
            <mxPoint x="430" y="310" as="targetPoint" />
          </mxGeometry>
        </mxCell>
        <mxCell id="3iBVKyG_XmniIYtV2a0F-57" value="" style="endArrow=none;html=1;rounded=0;" parent="1" edge="1">
          <mxGeometry width="50" height="50" relative="1" as="geometry">
            <mxPoint x="280" y="339" as="sourcePoint" />
            <mxPoint x="360" y="339" as="targetPoint" />
          </mxGeometry>
        </mxCell>
        <mxCell id="3iBVKyG_XmniIYtV2a0F-58" value="" style="endArrow=none;html=1;rounded=0;" parent="1" edge="1">
          <mxGeometry width="50" height="50" relative="1" as="geometry">
            <mxPoint x="360" y="369" as="sourcePoint" />
            <mxPoint x="360" y="309" as="targetPoint" />
          </mxGeometry>
        </mxCell>
        <mxCell id="3iBVKyG_XmniIYtV2a0F-59" value="" style="endArrow=classic;html=1;rounded=0;" parent="1" edge="1">
          <mxGeometry width="50" height="50" relative="1" as="geometry">
            <mxPoint x="360" y="339" as="sourcePoint" />
            <mxPoint x="430" y="340" as="targetPoint" />
          </mxGeometry>
        </mxCell>
        <mxCell id="3iBVKyG_XmniIYtV2a0F-60" value="" style="endArrow=classic;html=1;rounded=0;" parent="1" edge="1">
          <mxGeometry width="50" height="50" relative="1" as="geometry">
            <mxPoint x="360" y="369" as="sourcePoint" />
            <mxPoint x="430" y="369" as="targetPoint" />
          </mxGeometry>
        </mxCell>
        <mxCell id="3iBVKyG_XmniIYtV2a0F-61" value="" style="endArrow=classic;html=1;rounded=0;" parent="1" edge="1">
          <mxGeometry width="50" height="50" relative="1" as="geometry">
            <mxPoint x="360" y="379" as="sourcePoint" />
            <mxPoint x="430" y="380" as="targetPoint" />
          </mxGeometry>
        </mxCell>
        <mxCell id="3iBVKyG_XmniIYtV2a0F-62" value="" style="endArrow=none;html=1;rounded=0;" parent="1" edge="1">
          <mxGeometry width="50" height="50" relative="1" as="geometry">
            <mxPoint x="280" y="409" as="sourcePoint" />
            <mxPoint x="360" y="409" as="targetPoint" />
          </mxGeometry>
        </mxCell>
        <mxCell id="3iBVKyG_XmniIYtV2a0F-63" value="" style="endArrow=none;html=1;rounded=0;" parent="1" edge="1">
          <mxGeometry width="50" height="50" relative="1" as="geometry">
            <mxPoint x="360" y="439" as="sourcePoint" />
            <mxPoint x="360" y="379" as="targetPoint" />
          </mxGeometry>
        </mxCell>
        <mxCell id="3iBVKyG_XmniIYtV2a0F-64" value="" style="endArrow=classic;html=1;rounded=0;" parent="1" edge="1">
          <mxGeometry width="50" height="50" relative="1" as="geometry">
            <mxPoint x="360" y="409" as="sourcePoint" />
            <mxPoint x="430" y="409" as="targetPoint" />
          </mxGeometry>
        </mxCell>
        <mxCell id="3iBVKyG_XmniIYtV2a0F-65" value="" style="endArrow=classic;html=1;rounded=0;" parent="1" edge="1">
          <mxGeometry width="50" height="50" relative="1" as="geometry">
            <mxPoint x="360" y="439" as="sourcePoint" />
            <mxPoint x="430" y="439" as="targetPoint" />
          </mxGeometry>
        </mxCell>
        <mxCell id="3iBVKyG_XmniIYtV2a0F-66" value="" style="endArrow=classic;html=1;rounded=0;" parent="1" edge="1">
          <mxGeometry width="50" height="50" relative="1" as="geometry">
            <mxPoint x="360" y="450" as="sourcePoint" />
            <mxPoint x="430" y="450" as="targetPoint" />
          </mxGeometry>
        </mxCell>
        <mxCell id="3iBVKyG_XmniIYtV2a0F-67" value="" style="endArrow=none;html=1;rounded=0;" parent="1" edge="1">
          <mxGeometry width="50" height="50" relative="1" as="geometry">
            <mxPoint x="280" y="480" as="sourcePoint" />
            <mxPoint x="360" y="480" as="targetPoint" />
          </mxGeometry>
        </mxCell>
        <mxCell id="3iBVKyG_XmniIYtV2a0F-68" value="" style="endArrow=none;html=1;rounded=0;" parent="1" edge="1">
          <mxGeometry width="50" height="50" relative="1" as="geometry">
            <mxPoint x="360" y="510" as="sourcePoint" />
            <mxPoint x="360" y="450" as="targetPoint" />
          </mxGeometry>
        </mxCell>
        <mxCell id="3iBVKyG_XmniIYtV2a0F-69" value="" style="endArrow=classic;html=1;rounded=0;" parent="1" edge="1">
          <mxGeometry width="50" height="50" relative="1" as="geometry">
            <mxPoint x="360" y="480" as="sourcePoint" />
            <mxPoint x="430" y="480" as="targetPoint" />
          </mxGeometry>
        </mxCell>
        <mxCell id="3iBVKyG_XmniIYtV2a0F-70" value="" style="endArrow=classic;html=1;rounded=0;" parent="1" edge="1">
          <mxGeometry width="50" height="50" relative="1" as="geometry">
            <mxPoint x="360" y="510" as="sourcePoint" />
            <mxPoint x="430" y="510" as="targetPoint" />
          </mxGeometry>
        </mxCell>
        <mxCell id="3iBVKyG_XmniIYtV2a0F-71" value="12 months" style="text;html=1;strokeColor=none;fillColor=none;align=center;verticalAlign=middle;whiteSpace=wrap;rounded=0;" parent="1" vertex="1">
          <mxGeometry x="360" y="220" width="60" height="20" as="geometry" />
        </mxCell>
        <mxCell id="3iBVKyG_XmniIYtV2a0F-72" value="24 months" style="text;html=1;strokeColor=none;fillColor=none;align=center;verticalAlign=middle;whiteSpace=wrap;rounded=0;" parent="1" vertex="1">
          <mxGeometry x="365" y="245" width="60" height="20" as="geometry" />
        </mxCell>
        <mxCell id="3iBVKyG_XmniIYtV2a0F-73" value="36 months" style="text;html=1;strokeColor=none;fillColor=none;align=center;verticalAlign=middle;whiteSpace=wrap;rounded=0;" parent="1" vertex="1">
          <mxGeometry x="365" y="280" width="60" height="20" as="geometry" />
        </mxCell>
        <mxCell id="3iBVKyG_XmniIYtV2a0F-78" value="&lt;b&gt;&lt;font style=&quot;font-size: 18px;&quot;&gt;Python&lt;/font&gt;&lt;/b&gt;" style="text;html=1;strokeColor=none;fillColor=none;align=center;verticalAlign=middle;whiteSpace=wrap;rounded=0;" parent="1" vertex="1">
          <mxGeometry x="360" y="150" width="100" height="30" as="geometry" />
        </mxCell>
        <mxCell id="3iBVKyG_XmniIYtV2a0F-79" value="&lt;b&gt;&lt;font style=&quot;font-size: 11px;&quot;&gt;Snowflake&lt;/font&gt;&lt;/b&gt;" style="text;html=1;strokeColor=none;fillColor=none;align=center;verticalAlign=middle;whiteSpace=wrap;rounded=0;" parent="1" vertex="1">
          <mxGeometry x="60" y="350" width="60" height="30" as="geometry" />
        </mxCell>
        <mxCell id="3iBVKyG_XmniIYtV2a0F-80" value="" style="sketch=0;outlineConnect=0;fontColor=#232F3E;gradientColor=none;fillColor=#067F68;strokeColor=none;dashed=0;verticalLabelPosition=bottom;verticalAlign=top;align=center;html=1;fontSize=12;fontStyle=0;aspect=fixed;pointerEvents=1;shape=mxgraph.aws4.sagemaker_model;" parent="1" vertex="1">
          <mxGeometry x="430" y="230" width="20" height="20" as="geometry" />
        </mxCell>
        <mxCell id="3iBVKyG_XmniIYtV2a0F-81" value="" style="sketch=0;outlineConnect=0;fontColor=#232F3E;gradientColor=none;fillColor=#067F68;strokeColor=none;dashed=0;verticalLabelPosition=bottom;verticalAlign=top;align=center;html=1;fontSize=12;fontStyle=0;aspect=fixed;pointerEvents=1;shape=mxgraph.aws4.sagemaker_model;" parent="1" vertex="1">
          <mxGeometry x="430" y="260" width="20" height="20" as="geometry" />
        </mxCell>
        <mxCell id="3iBVKyG_XmniIYtV2a0F-82" value="" style="sketch=0;outlineConnect=0;fontColor=#232F3E;gradientColor=none;fillColor=#067F68;strokeColor=none;dashed=0;verticalLabelPosition=bottom;verticalAlign=top;align=center;html=1;fontSize=12;fontStyle=0;aspect=fixed;pointerEvents=1;shape=mxgraph.aws4.sagemaker_model;" parent="1" vertex="1">
          <mxGeometry x="430" y="290" width="20" height="20" as="geometry" />
        </mxCell>
        <mxCell id="3iBVKyG_XmniIYtV2a0F-84" value="" style="rounded=0;whiteSpace=wrap;html=1;" parent="1" vertex="1">
          <mxGeometry x="510" y="260" width="60" height="210" as="geometry" />
        </mxCell>
        <mxCell id="3iBVKyG_XmniIYtV2a0F-85" value="&lt;h1&gt;&lt;font style=&quot;font-size: 9px;&quot;&gt;Predictions&lt;/font&gt;&lt;/h1&gt;" style="text;html=1;strokeColor=none;fillColor=none;spacing=5;spacingTop=-20;whiteSpace=wrap;overflow=hidden;rounded=0;" parent="1" vertex="1">
          <mxGeometry x="510" y="260" width="60" height="210" as="geometry" />
        </mxCell>
        <mxCell id="3iBVKyG_XmniIYtV2a0F-86" value="" style="endArrow=classic;html=1;rounded=0;entryX=0;entryY=0;entryDx=0;entryDy=0;" parent="1" source="3iBVKyG_XmniIYtV2a0F-80" target="3iBVKyG_XmniIYtV2a0F-85" edge="1">
          <mxGeometry width="50" height="50" relative="1" as="geometry">
            <mxPoint x="490" y="295" as="sourcePoint" />
            <mxPoint x="540" y="245" as="targetPoint" />
          </mxGeometry>
        </mxCell>
        <mxCell id="3iBVKyG_XmniIYtV2a0F-87" value="" style="endArrow=classic;html=1;rounded=0;entryX=0;entryY=0;entryDx=0;entryDy=0;" parent="1" edge="1">
          <mxGeometry width="50" height="50" relative="1" as="geometry">
            <mxPoint x="450" y="270" as="sourcePoint" />
            <mxPoint x="510" y="287" as="targetPoint" />
          </mxGeometry>
        </mxCell>
        <mxCell id="3iBVKyG_XmniIYtV2a0F-88" value="" style="endArrow=classic;html=1;rounded=0;entryX=0;entryY=0.25;entryDx=0;entryDy=0;" parent="1" target="3iBVKyG_XmniIYtV2a0F-85" edge="1">
          <mxGeometry width="50" height="50" relative="1" as="geometry">
            <mxPoint x="450" y="300" as="sourcePoint" />
            <mxPoint x="630" y="240" as="targetPoint" />
          </mxGeometry>
        </mxCell>
        <mxCell id="Z-yO7i1SM1LQbv6-uCtM-2" value="&lt;font style=&quot;font-size: 24px;&quot;&gt;Customer Lifetime Value&lt;/font&gt;" style="text;html=1;strokeColor=none;fillColor=none;align=center;verticalAlign=middle;whiteSpace=wrap;rounded=0;" vertex="1" parent="1">
          <mxGeometry x="215" y="60" width="240" height="60" as="geometry" />
        </mxCell>
      </root>
    </mxGraphModel>
  </diagram>
</mxfile>
